# xmcd
#
# Track frame offsets:
#  150
#  16872
#  34926
#  46709
#  67324
#  84199
#  99692
#  113412
#  133738
#  139806
#  162154
#  186434
#  207409
#  227806
#  252788
#  268866
#  286188
#  301686
#  320069
#  337716
#
# Disc length: 4789 seconds
#
# Revision: 0
# Processed by: cddbd v1.5.1PL0 Copyright (c) Steve Scherf et al.
# Submitted via: AltoMP3_Maker 3.0
#
DISCID=1712b314
DTITLE=Mariah and Celine - Merry Christmas
DYEAR=1900
DGENRE=
TTITLE0=Silent Night
TTITLE1=All I want for XMas is you
TTITLE2=Xmas (Baby please come home)
TTITLE3=Miss you most (at Xmas time)
TTITLE4=Jesus born on this day
TTITLE5=Santa Claus is comin' to town
TTITLE6=Hark! The Herald Angels sing
TTITLE7=Jesus oh what a wonderful Child
TTITLE8=God rest Ye merry, Gentlemen
TTITLE9=Ave Maria
TTITLE10=O Holy Night
TTITLE11=Don't save it all for Xmas
TTITLE12=The prayer
TTITLE13=I'm your angel
TTITLE14=Brahms lullaby
TTITLE15=Blue Xmas
TTITLE16=Another day has gone by
TTITLE17=That's the way it is
TTITLE18=All the way
TTITLE19=Heartbreaker
EXTD=
EXTT0=
EXTT1=
EXTT2=
EXTT3=
EXTT4=
EXTT5=
EXTT6=
EXTT7=
EXTT8=
EXTT9=
EXTT10=
EXTT11=
EXTT12=
EXTT13=
EXTT14=
EXTT15=
EXTT16=
EXTT17=
EXTT18=
EXTT19=
PLAYORDER=
